HIERARCHY
ROOT Hips
{
  OFFSET -225.029 90.764 -236.531
  CHANNELS 6 Xposition Yposition Zposition Zrotation Xrotation Yrotation
  JOINT ToSpine
  {
    OFFSET -2.69724 7.43032 -0.144315
    CHANNELS 3 Zrotation Xrotation Yrotation
    JOINT Spine
    {
      OFFSET -0.0310711 10.7595 1.96963
      CHANNELS 3 Zrotation Xrotation Yrotation
      JOINT Spine1
      {
        OFFSET 13.1342 3.43533 0.764692
        CHANNELS 3 Zrotation Xrotation Yrotation
        JOINT Neck
        {
          OFFSET 29.8703 7.82586 -0.130764
          CHANNELS 3 Zrotation Xrotation Yrotation
          JOINT Head
          {
            OFFSET 9.52751 0.295786 -0.907742
            CHANNELS 3 Zrotation Xrotation Yrotation
            End Site
            {
              OFFSET 16.4037 0.713936 2.7358
            }
          }
        }
        JOINT LeftShoulder
        {
          OFFSET 27.5574 4.95586 2.47156
          CHANNELS 3 Zrotation Xrotation Yrotation
          JOINT LeftArm
          {
            OFFSET 1.20734 -0.998971 20.1238
            CHANNELS 3 Zrotation Xrotation Yrotation
            JOINT LeftForeArm
            {
              OFFSET 26.8049 -0.0536703 -0.155908
              CHANNELS 3 Zrotation Xrotation Yrotation
              JOINT LeftHand
              {
                OFFSET 26.6817 0 0.320147
                CHANNELS 3 Zrotation Xrotation Yrotation
                End Site
                {
                  OFFSET 18.6119 0 0.382219
                }
              }
            }
          }
        }
        JOINT RightShoulder
        {
          OFFSET 27.5927 4.71444 -2.65209
          CHANNELS 3 Zrotation Xrotation Yrotation
          JOINT RightArm
          {
            OFFSET 2.83739 -1.17114 -18.7564
            CHANNELS 3 Zrotation Xrotation Yrotation
            JOINT RightForeArm
            {
              OFFSET 28.839 -0.0548439 1.22491
              CHANNELS 3 Zrotation Xrotation Yrotation
              JOINT RightHand
              {
                OFFSET 26.5114 0 -0.101894
                CHANNELS 3 Zrotation Xrotation Yrotation
                End Site
                {
                  OFFSET 18.2168 0 0
                }
              }
            }
          }
        }
      }
    }
  }
  JOINT LeftUpLeg
  {
    OFFSET -4.76168 -1.9167 -10.2353
    CHANNELS 3 Zrotation Xrotation Yrotation
    JOINT LeftLeg
    {
      OFFSET 2.55951 -42.0585 -8.02213
      CHANNELS 3 Zrotation Xrotation Yrotation
      JOINT LeftFoot
      {
        OFFSET 3.16357 -42.5282 -3.95426
        CHANNELS 3 Zrotation Xrotation Yrotation
        JOINT LeftToeBase
        {
          OFFSET 0.346054 -6.02161 12.8035
          CHANNELS 3 Zrotation Xrotation Yrotation
          End Site
          {
            OFFSET 0.134235 -1.35082 5.13018
          }
        }
      }
    }
  }
  JOINT RightUpLeg
  {
    OFFSET -4.94151 -1.41743 10.6446
    CHANNELS 3 Zrotation Xrotation Yrotation
    JOINT RightLeg
    {
      OFFSET -2.56294 -42.0364 -7.94377
      CHANNELS 3 Zrotation Xrotation Yrotation
      JOINT RightFoot
      {
        OFFSET -3.0952 -42.555 -4.02241
        CHANNELS 3 Zrotation Xrotation Yrotation
        JOINT RightToeBase
        {
          OFFSET -0.0828122 -6.13587 12.8035
          CHANNELS 3 Zrotation Xrotation Yrotation
          End Site
          {
            OFFSET -0.131328 -1.35082 5.13018
          }
        }
      }
    }
  }
}
MOTION
Frames:	6
Frame Time:	0.0333333
80.513 79.5153 27.2957 -41.0971 -63.0296 -140.143 -70.1915 0 88.8779 129.686 65.4064 -56.9372 -5.71342 20.3365 8.21264 -132.649 55.0405 138.996 38.1021 79.6914 -11.5818 1.04001 -10.2255 -20.9748 -112.229 26.1259 -53.0849 16.4297 7.08282 -66.767 0.420957 0.000575269 0.35866 -2.03804 5.87407 48.9903 -72.2656 -27.2829 96.4165 33.6506 -20.7241 61.8841 0.58676 0.000331107 0.0646654 -19.4339 11.4492 79.296 -11.7339 67.8223 -18.4672 -3.8334 -15.3815 -1.34655 8.40662 -17.8318 11.6544 -13.7078 7.36353 95.1586 132.308 85.0356 -134.29 -12.508 -21.0027 1.10295 1.78333 -23.109 -24.8359 
80.7099 79.0175 26.7563 -40.8333 -62.13 -139.78 -70.1915 0 88.8779 128.867 65.1335 -56.796 -5.4724 19.9245 8.20388 -132.086 54.0334 139.416 45.5368 79.9335 -18.8313 1.02678 -10.3386 -21.3643 -109.585 29.0707 -58.2207 19.9734 3.47425 -79.901 0.420957 0.000575269 0.35866 -2.0562 5.82784 49.5414 -77.1292 -30.0382 90.3096 29.2603 -24.0178 53.9048 0.58676 0.000331107 0.0646654 -17.4675 12.7685 79.7151 -12.6406 68.9685 -18.606 -4.3046 -14.8618 -1.28685 8.73041 -18.3414 11.7511 -12.5987 7.25815 93.4957 148.34 82.9905 -152.036 -14.1169 -19.5726 1.07959 1.57111 -25.3012 -24.62 
80.7504 78.5062 26.1822 -41.683 -61.152 -140.697 -70.1915 0 88.8779 127.664 65.1222 -55.929 -4.62687 19.5227 8.14182 -130.487 53.0235 139.702 55.2932 79.4785 -27.8643 1.00135 -10.5562 -21.4413 -105.306 34.8505 -64.5824 22.3294 -0.382281 -90.2352 0.420957 0.000575269 0.35866 -2.02579 5.67106 49.9691 -77.8478 -29.6979 87.4963 18.8053 -21.9037 42.3497 0.58676 0.000331107 0.0646654 -16.499 13.6175 79.5803 -13.1254 69.6483 -17.882 -4.41709 -14.6522 -1.2615 8.97609 -18.7245 11.9636 -12.0518 6.7139 92.5572 156.843 80.7535 -162.747 -13.242 -19.9952 1.10121 1.84348 -24.7056 -21.0949 
80.6075 78.2278 25.5683 -44.0159 -58.9287 -143.654 -70.1915 0 88.8779 127.211 65.4521 -55.3274 -4.34466 19.629 8.15152 -131.892 53.114 141.347 57.4815 79.6207 -30.006 0.94376 -10.9721 -22.7237 -96.7405 40.3071 -74.4586 25.1659 -3.5357 -96.7497 0.420957 0.000575269 0.35866 -2.02856 5.76183 49.4809 -76.2884 -29.3562 85.7776 10.4876 -16.7154 32.8238 0.58676 0.000331107 0.0646654 -16.4611 15.0846 79.8757 -13.1141 69.7393 -17.1138 -5.01201 -15.2416 -1.33721 8.92837 -18.6474 12.2853 -11.3959 6.57246 93.0156 160.134 78.5899 -165.11 -12.1806 -19.3019 1.1727 1.78309 -24.1044 -22.9566 
80.158 78.2008 25.035 -46.2173 -57.3823 -146.849 -70.1915 0 88.8779 126.113 65.3212 -54.2422 -4.52988 18.8075 9.10556 -133.908 53.7308 144.134 58.9392 79.4378 -32.0153 0.857635 -11.4703 -24.6297 -84.6433 44.4173 -86.1835 28.7081 -5.70825 -99.5562 0.420957 0.000575269 0.35866 -2.02179 5.81907 49.0437 -76.3529 -28.1863 82.4957 7.91195 -16.1766 27.3922 0.58676 0.000331107 0.0646654 -17.9575 15.4134 79.945 -12.2318 68.6966 -17.2189 -5.2223 -14.7555 -1.27537 9.53956 -19.5599 13.5264 -11.3915 4.35807 93.4535 163.063 77.1086 -170.437 -11.6595 -19.0003 1.20182 2.07836 -23.3496 -18.0335 
79.5698 78.5696 24.5154 -49.3424 -54.6129 -151.876 -70.1915 0 88.8779 125.663 64.9426 -52.3204 -5.19042 18.5974 7.97424 -135.911 53.4175 145.53 57.1672 80.9069 -29.4259 0.702498 -12.4081 -25.5371 -74.5753 45.8376 -94.8471 32.1474 -6.99158 -100.225 0.420957 0.000575269 0.35866 -1.9384 5.67661 48.5113 -80.0567 -27.0475 77.7474 7.50623 -17.6287 26.3179 0.58676 0.000331107 0.0646654 -21.1164 15.8892 81.0102 -10.4915 66.3138 -16.8243 -4.89189 -14.2613 -1.21234 10.0441 -20.2542 15.1368 -10.9769 1.55409 94.5011 163.444 76.2387 -169.809 -11.4906 -17.8323 1.23565 1.89622 -23.7489 -21.3262 
